<?xml version="1.0" standalone="no"?>
<!DOCTYPE svg PUBLIC "-//W3C//DTD SVG 20010904//EN"
 "http://www.w3.org/TR/2001/REC-SVG-20010904/DTD/svg10.dtd">
<svg version="1.0" xmlns="http://www.w3.org/2000/svg"
 width="600.000000pt" height="600.000000pt" viewBox="0 0 600.000000 600.000000"
 preserveAspectRatio="xMidYMid meet">
<metadata>
Created by potrace 1.14, written by Peter Selinger 2001-2017
</metadata>
<g transform="translate(0.000000,600.000000) scale(0.100000,-0.100000)"
fill="#000000" stroke="none">
<path d="M2924 5931 c-2 -2 -21 -5 -41 -7 -21 -1 -56 -5 -78 -9 -22 -3 -58 -8
-80 -9 -22 -2 -42 -5 -45 -6 -3 -1 -9 -3 -15 -4 -5 -1 -26 -5 -45 -9 -19 -4
-52 -9 -72 -12 -21 -3 -58 -9 -83 -15 -24 -5 -62 -12 -82 -14 -21 -3 -49 -7
-63 -10 -14 -3 -42 -7 -63 -10 -21 -3 -54 -13 -75 -22 -20 -8 -55 -17 -77 -19
-58 -5 -193 -41 -255 -68 -14 -6 -29 -11 -35 -12 -5 0 -14 -3 -20 -6 -12 -8
-64 -22 -86 -24 -9 -1 -31 -10 -49 -19 -18 -9 -39 -16 -47 -16 -7 0 -13 -3
-13 -8 0 -4 -15 -13 -32 -21 -67 -27 -133 -63 -144 -77 -7 -8 -24 -17 -39 -20
-14 -2 -43 -15 -63 -27 -20 -13 -53 -29 -72 -37 -19 -7 -60 -33 -90 -57 -30
-24 -62 -49 -70 -56 -8 -7 -32 -21 -54 -32 -21 -11 -43 -27 -49 -35 -7 -8 -32
-28 -56 -43 -44 -29 -112 -95 -191 -188 -25 -29 -65 -72 -89 -97 -42 -42 -72
-85 -87 -124 -3 -10 -10 -18 -15 -18 -5 0 -9 -9 -9 -20 0 -11 -4 -20 -9 -20
-5 0 -12 -8 -15 -18 -3 -10 -24 -38 -46 -62 -22 -25 -40 -49 -40 -53 0 -4 -31
-72 -68 -150 -38 -78 -76 -167 -86 -197 -10 -30 -29 -73 -41 -95 -13 -22 -23
-43 -24 -48 -3 -27 -15 -57 -22 -57 -5 0 -8 -3 -7 -7 3 -11 -35 -127 -43 -133
-6 -4 -14 -50 -23 -132 -5 -44 -38 -172 -47 -184 -12 -14 -27 -148 -34 -299
-4 -83 -11 -178 -21 -260 -12 -104 -10 -367 3 -406 8 -24 9 -48 4 -67 -5 -17
-8 -32 -6 -34 6 -5 16 -68 20 -114 2 -23 8 -51 14 -62 6 -12 11 -31 11 -43 0
-26 24 -110 55 -194 12 -33 25 -80 29 -105 4 -24 11 -49 15 -55 4 -5 21 -46
36 -90 15 -44 56 -125 91 -181 35 -55 64 -105 64 -111 0 -6 6 -16 14 -22 8 -7
17 -25 21 -40 3 -15 21 -44 40 -64 19 -21 35 -40 35 -43 0 -7 47 -70 92 -123
29 -33 36 -49 32 -67 -4 -17 -1 -26 10 -30 9 -3 13 -10 10 -15 -3 -5 1 -9 8
-10 34 -2 52 -9 77 -31 14 -13 43 -35 63 -49 21 -13 38 -29 38 -35 0 -6 11
-16 24 -22 14 -6 35 -25 47 -41 12 -17 40 -42 61 -56 21 -14 59 -46 85 -71 27
-25 59 -53 73 -62 14 -9 31 -25 38 -34 7 -10 18 -18 24 -18 5 0 39 -23 75 -51
65 -53 127 -89 150 -89 6 0 16 -6 20 -13 4 -7 31 -26 58 -42 28 -16 56 -35 64
-42 19 -20 125 -87 133 -85 3 1 37 -15 75 -36 37 -21 86 -46 108 -56 56 -25
111 -53 173 -87 28 -16 52 -27 52 -23 0 4 8 0 18 -8 23 -21 85 -40 104 -33 10
4 25 -4 39 -19 16 -17 39 -27 69 -31 25 -3 59 -12 76 -20 17 -8 51 -17 75 -19
53 -6 86 -13 98 -20 9 -6 97 -18 119 -17 29 2 40 2 99 0 37 -1 67 -7 74 -15 7
-9 18 -10 35 -4 14 6 35 9 47 9 52 -3 192 16 211 29 6 4 22 7 36 8 14 1 43 5
65 8 22 4 58 9 79 12 22 3 47 9 57 14 9 6 39 12 65 15 26 4 51 8 55 10 4 3 24
7 45 10 22 3 56 12 77 20 20 8 37 13 37 10 0 -2 26 5 58 16 33 12 91 22 137
25 88 4 92 4 215 34 47 11 103 24 125 29 62 13 131 47 149 72 9 13 16 38 16
55 0 39 13 45 100 51 36 3 67 9 68 14 2 5 8 9 13 9 6 0 27 13 47 29 20 16 87
55 147 86 61 32 121 65 135 75 14 10 27 18 30 18 27 3 170 94 183 118 4 8 12
14 18 14 5 0 22 12 37 27 16 16 53 51 83 78 65 61 119 124 119 141 0 7 14 22
30 34 17 12 37 34 45 49 34 66 124 157 179 182 29 12 52 32 66 57 27 45 31 67
31 160 0 39 4 72 10 72 5 0 9 5 9 10 0 6 27 73 60 150 33 77 60 145 60 153 0
7 4 17 8 22 10 11 31 79 35 111 2 12 10 33 20 47 9 14 18 40 20 59 3 18 8 41
11 50 4 9 8 22 10 30 1 7 5 18 9 25 4 6 8 24 8 40 1 15 6 43 11 61 6 19 11 48
13 65 2 18 6 50 10 72 4 22 8 51 9 65 1 14 5 30 9 37 15 23 21 220 13 373 -10
170 -13 193 -41 290 -8 30 -17 82 -21 115 -11 117 -16 145 -39 225 -8 30 -17
75 -20 100 -8 79 -22 134 -77 285 -16 44 -38 113 -49 154 -10 41 -25 82 -32
90 -20 26 -37 60 -37 74 0 7 -8 22 -18 33 -28 30 -52 69 -57 93 -2 12 -17 38
-34 58 -17 20 -28 40 -26 44 3 4 -2 12 -10 19 -8 7 -15 16 -15 21 0 10 -54 83
-115 154 -48 56 -159 196 -190 240 -32 45 -118 135 -130 135 -16 0 -47 40 -42
55 5 11 -47 82 -92 126 -9 9 -27 31 -41 48 -14 17 -29 31 -34 31 -5 0 -37 28
-71 63 -35 34 -75 69 -91 77 -15 8 -39 25 -52 38 -14 12 -31 22 -38 22 -7 0
-14 3 -16 8 -4 9 -50 36 -100 58 -21 9 -38 20 -38 24 0 4 -17 15 -37 23 -21 8
-74 32 -118 53 -84 40 -87 41 -109 43 -8 0 -22 8 -30 17 -9 8 -16 12 -16 8 0
-3 -7 0 -17 7 -9 8 -18 13 -20 12 -1 -2 -4 -2 -5 -2 -2 1 -32 3 -68 5 -35 1
-103 12 -150 23 -47 11 -110 23 -140 26 -104 11 -817 25 -826 16z"/>
</g>
</svg>
